G04 EAGLE Gerber RS-274X export*
G75*
%MOMM*%
%FSLAX34Y34*%
%LPD*%
%AMOC8*
5,1,8,0,0,1.08239X$1,22.5*%
G01*
%ADD10R,4.216000X4.216000*%
%ADD11C,4.216000*%
%ADD12R,1.649600X1.649600*%
%ADD13C,1.649600*%
%ADD14C,0.965200*%
%ADD15R,1.409600X1.409600*%
%ADD16P,1.525737X8X22.500000*%
%ADD17C,1.879600*%
%ADD18C,2.286000*%
%ADD19C,1.778000*%
%ADD20C,0.609600*%
%ADD21C,0.812800*%
%ADD22C,0.304800*%
%ADD23C,0.254000*%
%ADD24C,10.000000*%
%ADD25P,1.948302X8X22.500000*%
%ADD26C,3.366000*%
%ADD27C,5.016000*%


D10*
X135500Y920000D03*
D11*
X843420Y920000D02*
X885580Y920000D01*
D12*
X425000Y744900D03*
D13*
X425000Y719500D03*
X425000Y694100D03*
X425000Y668700D03*
X425000Y643300D03*
X425000Y617900D03*
X425000Y592500D03*
D12*
X425000Y567100D03*
X575000Y567100D03*
D13*
X575000Y592500D03*
X575000Y617900D03*
X575000Y643300D03*
X575000Y668700D03*
X575000Y694100D03*
X575000Y719500D03*
X575000Y744900D03*
D14*
X141900Y612700D03*
X192700Y638100D03*
X218100Y587300D03*
X167300Y561900D03*
X218100Y387300D03*
X167300Y361900D03*
X141900Y412700D03*
X192700Y438100D03*
X67300Y461900D03*
X41900Y512700D03*
X92700Y538100D03*
X118100Y487300D03*
X292700Y538100D03*
X318100Y487300D03*
X267300Y461900D03*
X241900Y512700D03*
X937961Y454079D03*
X884079Y472039D03*
X902039Y525921D03*
X955921Y507961D03*
X712039Y525921D03*
X765921Y507961D03*
X747961Y454079D03*
X694079Y472039D03*
D15*
X284800Y1125700D03*
D16*
X310200Y1125700D03*
X335600Y1125700D03*
X361000Y1125700D03*
X386400Y1125700D03*
X411800Y1125700D03*
X437200Y1125700D03*
X462600Y1125700D03*
X488000Y1125700D03*
X513400Y1125700D03*
X538800Y1125700D03*
X564200Y1125700D03*
X589600Y1125700D03*
X615000Y1125700D03*
X640400Y1125700D03*
X665800Y1125700D03*
X691200Y1125700D03*
X716600Y1125700D03*
X716600Y1354300D03*
X691200Y1354300D03*
X665800Y1354300D03*
X640400Y1354300D03*
X615000Y1354300D03*
X589600Y1354300D03*
X564200Y1354300D03*
X538800Y1354300D03*
X513400Y1354300D03*
X488000Y1354300D03*
X462600Y1354300D03*
X437200Y1354300D03*
X411800Y1354300D03*
X386400Y1354300D03*
X361000Y1354300D03*
X335600Y1354300D03*
X310200Y1354300D03*
D15*
X284800Y1354300D03*
D17*
X284800Y1380000D03*
X310200Y1380000D03*
X335600Y1380000D03*
X361000Y1380000D03*
X386400Y1380000D03*
X411800Y1380000D03*
X437200Y1380000D03*
X462600Y1380000D03*
X488000Y1380000D03*
X513400Y1380000D03*
X538800Y1380000D03*
X564200Y1380000D03*
X589600Y1380000D03*
X615000Y1380000D03*
X640400Y1380000D03*
X665800Y1380000D03*
X691200Y1380000D03*
X716600Y1380000D03*
X716600Y1100000D03*
X691200Y1100000D03*
X665800Y1100000D03*
X640400Y1100000D03*
X615000Y1100000D03*
X589600Y1100000D03*
X564200Y1100000D03*
X538800Y1100000D03*
X513400Y1100000D03*
X488000Y1100000D03*
X462600Y1100000D03*
X437200Y1100000D03*
X411800Y1100000D03*
X386400Y1100000D03*
X361000Y1100000D03*
X335600Y1100000D03*
X310200Y1100000D03*
X284800Y1100000D03*
X235200Y1143160D03*
X235200Y1117760D03*
X765200Y1117190D03*
X765200Y1142590D03*
X450000Y785000D03*
X424600Y785000D03*
D18*
X423800Y406675D03*
X576200Y406675D03*
X576200Y273325D03*
X423800Y273325D03*
D19*
X525400Y238400D03*
X500000Y238400D03*
X474600Y238400D03*
X398400Y340000D03*
X398400Y314600D03*
X398400Y365400D03*
X531750Y416200D03*
X468250Y416200D03*
X468250Y467000D03*
X531750Y467000D03*
D17*
X946000Y796000D03*
X946000Y821400D03*
X946000Y846800D03*
X764700Y1176500D03*
X790100Y1176500D03*
X815500Y1176500D03*
X840900Y1176500D03*
X866300Y1176500D03*
X891700Y1176500D03*
X764700Y1201900D03*
X790100Y1201900D03*
X815500Y1201900D03*
X840900Y1201900D03*
X866300Y1201900D03*
X891700Y1201900D03*
X764700Y1227300D03*
X790100Y1227300D03*
X815500Y1227300D03*
X840900Y1227300D03*
X866300Y1227300D03*
X891700Y1227300D03*
X764700Y1252700D03*
X790100Y1252700D03*
X815500Y1252700D03*
X840900Y1252700D03*
X866300Y1252700D03*
X891700Y1252700D03*
X764700Y1278100D03*
X790100Y1278100D03*
X815500Y1278100D03*
X840900Y1278100D03*
X866300Y1278100D03*
X891700Y1278100D03*
X764700Y1303500D03*
X790100Y1303500D03*
X815500Y1303500D03*
X840900Y1303500D03*
X866300Y1303500D03*
X891700Y1303500D03*
X108800Y1176500D03*
X134200Y1176500D03*
X159600Y1176500D03*
X185000Y1176500D03*
X210400Y1176500D03*
X235800Y1176500D03*
X108800Y1201900D03*
X134200Y1201900D03*
X159600Y1201900D03*
X185000Y1201900D03*
X210400Y1201900D03*
X235800Y1201900D03*
X108800Y1227300D03*
X134200Y1227300D03*
X159600Y1227300D03*
X185000Y1227300D03*
X210400Y1227300D03*
X235800Y1227300D03*
X108800Y1252700D03*
X134200Y1252700D03*
X159600Y1252700D03*
X185000Y1252700D03*
X210400Y1252700D03*
X235800Y1252700D03*
X108800Y1278100D03*
X134200Y1278100D03*
X159600Y1278100D03*
X185000Y1278100D03*
X210400Y1278100D03*
X235800Y1278100D03*
X108800Y1303500D03*
X134200Y1303500D03*
X159600Y1303500D03*
X185000Y1303500D03*
X210400Y1303500D03*
X235800Y1303500D03*
D20*
X167000Y372000D02*
X167000Y362000D01*
X167000Y372000D02*
X78500Y460500D01*
X78500Y476000D01*
X46500Y508000D02*
X42000Y512500D01*
X46500Y508000D02*
X78500Y476000D01*
X167000Y362000D02*
X167300Y361900D01*
X42000Y512500D02*
X41900Y512700D01*
X118500Y513000D02*
X118500Y487500D01*
X118500Y513000D02*
X167000Y561500D01*
X118500Y487500D02*
X118100Y487300D01*
X167000Y561500D02*
X167300Y561900D01*
X168000Y438500D02*
X192500Y438500D01*
X168000Y438500D02*
X121000Y485500D01*
X192500Y438500D02*
X192700Y438100D01*
X121000Y485500D02*
X118100Y487300D01*
X193000Y628000D02*
X193000Y638000D01*
X193000Y628000D02*
X229500Y591500D01*
X229500Y583000D01*
X210000Y563500D01*
X170000Y563500D01*
X193000Y638000D02*
X192700Y638100D01*
X170000Y563500D02*
X167300Y561900D01*
X241500Y530000D02*
X241500Y513000D01*
X241500Y530000D02*
X211000Y560500D01*
X241500Y513000D02*
X241900Y512700D01*
X211000Y560500D02*
X210000Y563500D01*
X135500Y716000D02*
X135500Y920000D01*
X135500Y716000D02*
X128500Y709000D01*
X128500Y701000D01*
X190000Y639500D01*
X192700Y638100D01*
X140000Y601500D02*
X48500Y510000D01*
X140000Y601500D02*
X164500Y601500D01*
X190000Y627000D01*
X48500Y510000D02*
X46500Y508000D01*
X190000Y627000D02*
X193000Y628000D01*
X195500Y982000D02*
X195500Y1034500D01*
X195500Y982000D02*
X136500Y923000D01*
X135500Y920000D01*
X694000Y472000D02*
X694000Y425000D01*
X525500Y256500D01*
X525500Y238500D01*
X694000Y472000D02*
X694079Y472039D01*
X525500Y238500D02*
X525400Y238400D01*
X866500Y1303500D02*
X891500Y1303500D01*
X891700Y1303500D01*
X866500Y1303500D02*
X866300Y1303500D01*
X849000Y507500D02*
X836500Y507500D01*
X766000Y507500D01*
X849000Y507500D02*
X884000Y472500D01*
X766000Y507500D02*
X765921Y507961D01*
X884000Y472500D02*
X884079Y472039D01*
X921000Y507500D02*
X955500Y507500D01*
X921000Y507500D02*
X887000Y473500D01*
X955500Y507500D02*
X955921Y507961D01*
X887000Y473500D02*
X884079Y472039D01*
X425000Y567500D02*
X425000Y574000D01*
X438000Y587000D01*
X438000Y681000D01*
X425000Y694000D01*
X425000Y567500D02*
X425000Y567100D01*
X425000Y694000D02*
X425000Y694100D01*
X459500Y567500D02*
X575000Y567500D01*
X459500Y567500D02*
X441000Y586000D01*
X575000Y567500D02*
X575000Y567100D01*
X441000Y586000D02*
X438000Y587000D01*
X343500Y487500D02*
X318500Y487500D01*
X343500Y487500D02*
X422000Y566000D01*
X318500Y487500D02*
X318100Y487300D01*
X422000Y566000D02*
X425000Y567100D01*
X425000Y768000D02*
X425000Y785000D01*
X425000Y768000D02*
X438000Y755000D01*
X438000Y709000D01*
X426000Y697000D01*
X425000Y785000D02*
X424600Y785000D01*
X426000Y697000D02*
X425000Y694100D01*
X836500Y635000D02*
X836500Y510500D01*
X836500Y507500D01*
X398500Y321000D02*
X398500Y315000D01*
X398500Y321000D02*
X412000Y334500D01*
X412000Y395500D01*
X344500Y463000D01*
X344500Y484500D01*
X398500Y315000D02*
X398400Y314600D01*
X344500Y484500D02*
X343500Y487500D01*
X259500Y437000D02*
X195500Y437000D01*
X259500Y437000D02*
X374500Y322000D01*
X395500Y322000D01*
X195500Y437000D02*
X192700Y438100D01*
X395500Y322000D02*
X398400Y314600D01*
D21*
X195500Y1034500D03*
X836500Y635000D03*
D20*
X310500Y1100000D02*
X310500Y1114000D01*
X310500Y1125500D01*
X310200Y1125700D01*
X310200Y1100000D02*
X310500Y1100000D01*
X307500Y1114000D02*
X275500Y1114000D01*
X258000Y1131500D01*
X258000Y1332000D01*
X245500Y1344500D01*
X307500Y1114000D02*
X310500Y1114000D01*
D21*
X245500Y1344500D03*
D20*
X336000Y1125500D02*
X336000Y1100000D01*
X336000Y1125500D02*
X335600Y1125700D01*
X335600Y1100000D02*
X336000Y1100000D01*
X333000Y1098500D02*
X328500Y1098500D01*
X316000Y1086000D01*
X303000Y1086000D02*
X279000Y1086000D01*
X303000Y1086000D02*
X316000Y1086000D01*
X279000Y1086000D02*
X249500Y1115500D01*
X249500Y1163000D01*
X236000Y1176500D01*
X333000Y1098500D02*
X335600Y1100000D01*
X236000Y1176500D02*
X235800Y1176500D01*
X326500Y1354500D02*
X335500Y1354500D01*
X326500Y1354500D02*
X315000Y1366000D01*
X230500Y1366000D01*
X228500Y1368000D01*
X220500Y1368000D01*
X214000Y1361500D01*
X214000Y1345500D01*
X250000Y1309500D01*
X250000Y1192500D01*
X237000Y1179500D01*
X335600Y1354300D02*
X335500Y1354500D01*
X237000Y1179500D02*
X235800Y1176500D01*
X455000Y410000D02*
X455000Y368500D01*
X455000Y410000D02*
X454500Y410500D01*
X454500Y453500D01*
X468000Y467000D01*
X468250Y467000D01*
X303000Y841500D02*
X303000Y1083000D01*
X303000Y841500D02*
X425000Y719500D01*
X303000Y1083000D02*
X303000Y1086000D01*
D21*
X455000Y368500D03*
D22*
X398000Y340000D02*
X365500Y340000D01*
X277000Y428500D01*
X277000Y780000D01*
X243500Y813500D01*
X243500Y1029500D01*
X194500Y1078500D01*
X194500Y1168000D01*
X197500Y1171000D01*
X197500Y1373500D01*
X218000Y1394000D01*
X347000Y1394000D01*
X361000Y1380000D01*
X398000Y340000D02*
X398400Y340000D01*
D23*
X294500Y387000D02*
X218500Y387000D01*
X294500Y387000D02*
X299000Y382500D01*
X317500Y401000D02*
X317500Y474500D01*
X293000Y499000D01*
X293000Y538000D01*
X218100Y387300D02*
X218500Y387000D01*
X292700Y538100D02*
X293000Y538000D01*
X725000Y454500D02*
X747500Y454500D01*
X725000Y454500D02*
X698000Y481500D01*
X673500Y481500D01*
X524000Y332000D01*
X491000Y332000D01*
X747500Y454500D02*
X747961Y454079D01*
X898500Y943000D02*
X898500Y974500D01*
X898500Y943000D02*
X913500Y928000D01*
X913500Y889500D01*
X942000Y861000D01*
X951500Y861000D01*
X965500Y847000D01*
X965500Y468500D01*
X941500Y444500D01*
X758000Y444500D01*
X749000Y453500D01*
X747961Y454079D01*
D21*
X299000Y382500D03*
X317500Y401000D03*
X491000Y332000D03*
X898500Y974500D03*
D23*
X67500Y461500D02*
X67500Y448500D01*
X221000Y295000D01*
X442000Y295000D01*
X672500Y525500D01*
X712000Y525500D01*
X67500Y461500D02*
X67300Y461900D01*
X712000Y525500D02*
X712039Y525921D01*
X783500Y454500D02*
X937500Y454500D01*
X783500Y454500D02*
X713000Y525000D01*
X937500Y454500D02*
X937961Y454079D01*
X713000Y525000D02*
X712039Y525921D01*
X548000Y1354500D02*
X539000Y1354500D01*
X548000Y1354500D02*
X559500Y1366000D01*
X785000Y1366000D01*
X809000Y1366000D02*
X857000Y1366000D01*
X911500Y1311500D01*
X911500Y1024000D01*
X818000Y930500D01*
X818000Y780500D01*
X820000Y778500D01*
X820000Y634500D01*
X712500Y527000D01*
X538800Y1354300D02*
X539000Y1354500D01*
X712500Y527000D02*
X712039Y525921D01*
D21*
X785000Y1366000D03*
X809000Y1366000D03*
D23*
X93000Y538000D02*
X93000Y461500D01*
X141500Y413000D01*
X93000Y538000D02*
X92700Y538100D01*
X141500Y413000D02*
X141900Y412700D01*
X142500Y587000D02*
X218000Y587000D01*
X142500Y587000D02*
X94000Y538500D01*
X218000Y587000D02*
X218100Y587300D01*
X94000Y538500D02*
X92700Y538100D01*
X666000Y1380000D02*
X671500Y1380000D01*
X685500Y1394000D01*
X769000Y1394000D01*
X845500Y1317500D01*
X897500Y1317500D01*
X905500Y1309500D01*
X905500Y1116000D01*
X799500Y1010000D01*
X799500Y703000D01*
X463500Y367000D01*
X463500Y361000D01*
X403500Y301000D01*
X254500Y301000D01*
X143000Y412500D01*
X665800Y1380000D02*
X666000Y1380000D01*
X143000Y412500D02*
X141900Y412700D01*
X267000Y462000D02*
X267000Y577000D01*
X211750Y632250D02*
X139000Y705000D01*
X211750Y632250D02*
X267000Y577000D01*
X118000Y636500D02*
X118000Y705000D01*
X118000Y636500D02*
X141500Y613000D01*
X267000Y462000D02*
X267300Y461900D01*
X141900Y612700D02*
X141500Y613000D01*
X902000Y526000D02*
X902000Y725000D01*
X835000Y792000D01*
X268000Y688500D02*
X212500Y633000D01*
X902000Y526000D02*
X902039Y525921D01*
X212500Y633000D02*
X211750Y632250D01*
X682000Y1354000D02*
X691000Y1354000D01*
X682000Y1354000D02*
X670500Y1342500D01*
X259500Y1342500D01*
X244500Y1357500D01*
X224500Y1357500D01*
X691000Y1354000D02*
X691200Y1354300D01*
D21*
X139000Y705000D03*
X118000Y705000D03*
X835000Y792000D03*
X268000Y688500D03*
X224500Y1357500D03*
D22*
X575000Y627000D02*
X575000Y618000D01*
X575000Y627000D02*
X705500Y757500D01*
X705500Y1093000D01*
X704000Y1094500D01*
X704000Y1105500D01*
X714000Y1115500D01*
X721000Y1115500D01*
X731500Y1126000D01*
X731500Y1339500D01*
X717000Y1354000D01*
X575000Y618000D02*
X575000Y617900D01*
X717000Y1354000D02*
X716600Y1354300D01*
X575000Y728500D02*
X575000Y719500D01*
X575000Y728500D02*
X362000Y941500D01*
X362000Y1074500D01*
X375000Y1087500D01*
X475500Y1087500D01*
X488000Y1100000D01*
X575000Y694000D02*
X575000Y685000D01*
X563500Y673500D01*
X563500Y664000D01*
X570500Y657000D01*
X579500Y657000D01*
X700500Y778000D01*
X700500Y1073000D01*
X678500Y1095000D01*
X678500Y1105000D01*
X671000Y1112500D01*
X551500Y1112500D01*
X539000Y1100000D01*
X575000Y694100D02*
X575000Y694000D01*
X539000Y1100000D02*
X538800Y1100000D01*
X575000Y767500D02*
X575000Y745000D01*
X575000Y767500D02*
X640000Y832500D01*
X640000Y1075000D01*
X615000Y1100000D01*
X575000Y745000D02*
X575000Y744900D01*
X575000Y678000D02*
X575000Y669000D01*
X575000Y678000D02*
X695500Y798500D01*
X695500Y1070500D01*
X678500Y1087500D01*
X653000Y1087500D01*
X640500Y1100000D01*
X575000Y669000D02*
X575000Y668700D01*
X640400Y1100000D02*
X640500Y1100000D01*
X811500Y1010000D02*
X811500Y775000D01*
X811500Y1010000D02*
X841500Y1040000D01*
X826000Y1048500D02*
X807000Y1048500D01*
X804500Y1046000D01*
D21*
X811500Y775000D03*
X841500Y1040000D03*
X826000Y1048500D03*
X804500Y1046000D03*
D22*
X575000Y646000D02*
X575000Y643500D01*
X575000Y646000D02*
X462500Y758500D01*
X462500Y834500D01*
X357000Y940000D01*
X357000Y1078000D01*
X373500Y1094500D01*
X373500Y1105000D01*
X384000Y1115500D01*
X543000Y1115500D01*
X554000Y1126500D01*
X554000Y1130000D01*
X560000Y1136000D01*
X670000Y1136000D01*
X676000Y1130000D01*
X676000Y1115000D01*
X691000Y1100000D01*
X575000Y643500D02*
X575000Y643300D01*
X691000Y1100000D02*
X691200Y1100000D01*
D20*
X567000Y525000D02*
X428500Y525000D01*
X567000Y525000D02*
X755000Y713000D01*
X755000Y1037000D01*
X767000Y1049000D01*
X767000Y1115500D01*
X765500Y1117000D01*
X765200Y1117190D01*
D21*
X428500Y525000D03*
D20*
X427500Y535000D02*
X566000Y535000D01*
X713000Y682000D01*
X713000Y1076500D01*
X751000Y1114500D01*
X751000Y1128500D01*
X765000Y1142500D01*
X765200Y1142590D01*
D21*
X427500Y535000D03*
D20*
X425000Y643500D02*
X425000Y650500D01*
X250000Y825500D01*
X250000Y1032000D01*
X233000Y1049000D01*
X233000Y1115500D01*
X235000Y1117500D01*
X425000Y643500D02*
X425000Y643300D01*
X235000Y1117500D02*
X235200Y1117760D01*
D24*
X50000Y1350000D03*
X950000Y1350000D03*
D20*
X946000Y827000D02*
X946000Y821500D01*
X946000Y827000D02*
X864500Y908500D01*
X864500Y920000D01*
X946000Y821500D02*
X946000Y821400D01*
D25*
X575000Y785000D03*
D26*
X567310Y67310D03*
X432690Y67310D03*
D27*
X500000Y55000D03*
M02*
