M48
;GenerationSoftware,Autodesk,EAGLE,9.1.3*%
;CreationDate,2018-09-14T06:40:55Z*%
FMAT,2
ICI,OFF
METRIC,TZ,000.000
T13C0.305
T12C0.356
T11C0.800
T10C0.889
T9C0.900
T8C1.016
T7C1.040
T6C1.100
T5C1.397
T4C2.350
T3C3.200
T2C4.000
T1C6.000
%
G90
M71
T1
X95000Y135000
X5000Y135000
T2
X26000Y106000
X33000Y106000
X67000Y106000
X74000Y106000
X50000Y5500
T3
X13550Y92000
X77805Y92000
X22195Y92000
X86450Y92000
T4
X43269Y6731
X56731Y6731
T5
X42380Y27332
X42380Y40668
X57620Y40668
X57620Y27332
T6
X57500Y78500
T7
X42500Y61790
X42500Y64330
X42500Y66870
X42500Y59250
X42500Y71950
X42500Y74490
X42500Y56710
X57500Y56710
X57500Y59250
X57500Y61790
X57500Y64330
X57500Y66870
X57500Y69410
X57500Y71950
X57500Y74490
X42500Y69410
T8
X23580Y130350
X48800Y110000
X21040Y130350
X18500Y130350
X15960Y130350
X13420Y130350
X10880Y130350
X23580Y127810
X21040Y127810
X18500Y127810
X15960Y127810
X13420Y127810
X10880Y127810
X23580Y125270
X21040Y125270
X18500Y125270
X15960Y125270
X15960Y122730
X13420Y122730
X10880Y122730
X23580Y120190
X21040Y120190
X18500Y120190
X15960Y120190
X13420Y120190
X10880Y120190
X23580Y117650
X21040Y117650
X18500Y117650
X15960Y117650
X13420Y117650
X10880Y117650
X89170Y130350
X86630Y130350
X84090Y130350
X81550Y130350
X79010Y130350
X76470Y130350
X89170Y127810
X86630Y127810
X84090Y127810
X81550Y127810
X79010Y127810
X76470Y127810
X89170Y125270
X86630Y125270
X84090Y125270
X81550Y125270
X79010Y125270
X76470Y125270
X89170Y122730
X86630Y122730
X84090Y122730
X81550Y122730
X79010Y122730
X76470Y122730
X89170Y120190
X86630Y120190
X84090Y120190
X81550Y120190
X79010Y120190
X76470Y120190
X89170Y117650
X86630Y117650
X84090Y117650
X81550Y117650
X79010Y117650
X76470Y117650
X94600Y84680
X94600Y82140
X94600Y79600
X53880Y138000
X18500Y122730
X21040Y122730
X23580Y122730
X42460Y78500
X45000Y78500
X28480Y138000
X31020Y138000
X33560Y138000
X36100Y138000
X38640Y138000
X41180Y138000
X43720Y138000
X46260Y138000
X48800Y138000
X51340Y138000
X13420Y125270
X56420Y138000
X58960Y138000
X61500Y138000
X64040Y138000
X66580Y138000
X69120Y138000
X71660Y138000
X71660Y110000
X69120Y110000
X66580Y110000
X64040Y110000
X61500Y110000
X58960Y110000
X56420Y110000
X53880Y110000
X51340Y110000
X10880Y125270
X46260Y110000
X43720Y110000
X41180Y110000
X38640Y110000
X36100Y110000
X33560Y110000
X31020Y110000
X28480Y110000
X23520Y114316
X23520Y111776
X76520Y111719
X76520Y114259
T9
X53175Y46700
X46825Y46700
X46825Y41620
X53175Y41620
T10
X39840Y36540
X39840Y31460
X52540Y23840
X50000Y23840
X47460Y23840
X39840Y34000
T11
X41180Y135430
X38640Y135430
X36100Y135430
X33560Y135430
X31020Y135430
X28480Y135430
X43720Y135430
X46260Y135430
X48800Y135430
X51340Y135430
X53880Y135430
X56420Y135430
X58960Y135430
X61500Y135430
X64040Y135430
X66580Y135430
X69120Y135430
X71660Y135430
X71660Y112570
X69120Y112570
X66580Y112570
X64040Y112570
X61500Y112570
X58960Y112570
X56420Y112570
X53880Y112570
X51340Y112570
X48800Y112570
X46260Y112570
X43720Y112570
X41180Y112570
X38640Y112570
X36100Y112570
X33560Y112570
X31020Y112570
X28480Y112570
T12
X69408Y47204
X74796Y45408
X76592Y50796
X71204Y52592
X95592Y50796
X90204Y52592
X88408Y47204
X93796Y45408
X24190Y51270
X26730Y46190
X31810Y48730
X29270Y53810
X11810Y48730
X9270Y53810
X4190Y51270
X6730Y46190
X19270Y43810
X14190Y41270
X16730Y36190
X21810Y38730
X16730Y56190
X21810Y58730
X19270Y63810
X14190Y61270
T13
X83650Y63500
X24550Y134450
X45500Y36850
X42850Y52500
X42750Y53500
X29900Y38250
X31750Y40100
X49100Y33200
X89850Y97450
X78500Y136600
X80900Y136600
X13900Y70500
X11800Y70500
X83500Y79200
X26800Y68850
X22450Y135750
X81150Y77500
X84150Y104000
X82600Y104850
X80450Y104600
X19550Y103450
M30