G04 EAGLE Gerber RS-274X export*
G75*
%MOMM*%
%FSLAX34Y34*%
%LPD*%
%AMOC8*
5,1,8,0,0,1.08239X$1,22.5*%
G01*
%ADD10C,0.254000*%


D10*
X0Y500000D02*
X1903Y456422D01*
X7596Y413176D01*
X17037Y370590D01*
X30154Y328990D01*
X46846Y288691D01*
X66987Y250000D01*
X90424Y213212D01*
X116978Y178606D01*
X146447Y146447D01*
X178606Y116978D01*
X213212Y90424D01*
X250000Y66987D01*
X288691Y46846D01*
X328990Y30154D01*
X370590Y17037D01*
X413176Y7596D01*
X456422Y1903D01*
X500000Y0D01*
X543578Y1903D01*
X586824Y7596D01*
X629410Y17037D01*
X671010Y30154D01*
X711309Y46846D01*
X750000Y66987D01*
X786788Y90424D01*
X821394Y116978D01*
X853553Y146447D01*
X883022Y178606D01*
X909576Y213212D01*
X933013Y250000D01*
X953154Y288691D01*
X969846Y328990D01*
X982963Y370590D01*
X992404Y413176D01*
X998097Y456422D01*
X1000000Y500000D01*
X1000000Y1350000D01*
X999810Y1354358D01*
X999240Y1358682D01*
X998296Y1362941D01*
X996985Y1367101D01*
X995315Y1371131D01*
X993301Y1375000D01*
X990958Y1378679D01*
X988302Y1382139D01*
X985355Y1385355D01*
X982139Y1388302D01*
X978679Y1390958D01*
X975000Y1393301D01*
X971131Y1395315D01*
X967101Y1396985D01*
X962941Y1398296D01*
X958682Y1399240D01*
X954358Y1399810D01*
X950000Y1400000D01*
X50000Y1400000D01*
X45642Y1399810D01*
X41318Y1399240D01*
X37059Y1398296D01*
X32899Y1396985D01*
X28869Y1395315D01*
X25000Y1393301D01*
X21321Y1390958D01*
X17861Y1388302D01*
X14645Y1385355D01*
X11698Y1382139D01*
X9042Y1378679D01*
X6699Y1375000D01*
X4685Y1371131D01*
X3015Y1367101D01*
X1704Y1362941D01*
X760Y1358682D01*
X190Y1354358D01*
X0Y1350000D01*
X0Y500000D01*
X275000Y1145000D02*
X725000Y1145000D01*
X725000Y1335000D01*
X275000Y1335000D01*
X275000Y1145000D01*
X780000Y1100000D02*
X800000Y1100000D01*
X800000Y1160000D01*
X780000Y1160000D01*
X780000Y1100000D01*
X200000Y1100000D02*
X220000Y1100000D01*
X220000Y1160000D01*
X200000Y1160000D01*
X200000Y1100000D01*
X760000Y1059396D02*
X759927Y1058189D01*
X759781Y1056989D01*
X759563Y1055800D01*
X759274Y1054627D01*
X758915Y1053473D01*
X758486Y1052343D01*
X757990Y1051241D01*
X757428Y1050170D01*
X756803Y1049136D01*
X756116Y1048141D01*
X755371Y1047190D01*
X754569Y1046285D01*
X753715Y1045431D01*
X752810Y1044629D01*
X751859Y1043884D01*
X750864Y1043197D01*
X749830Y1042572D01*
X748759Y1042010D01*
X747657Y1041514D01*
X746527Y1041085D01*
X745373Y1040726D01*
X744200Y1040437D01*
X743011Y1040219D01*
X741811Y1040073D01*
X740604Y1040000D01*
X739396Y1040000D01*
X738189Y1040073D01*
X736989Y1040219D01*
X735800Y1040437D01*
X734627Y1040726D01*
X733473Y1041085D01*
X732343Y1041514D01*
X731241Y1042010D01*
X730170Y1042572D01*
X729136Y1043197D01*
X728141Y1043884D01*
X727190Y1044629D01*
X726285Y1045431D01*
X725431Y1046285D01*
X724629Y1047190D01*
X723884Y1048141D01*
X723197Y1049136D01*
X722572Y1050170D01*
X722010Y1051241D01*
X721514Y1052343D01*
X721085Y1053473D01*
X720726Y1054627D01*
X720437Y1055800D01*
X720219Y1056989D01*
X720073Y1058189D01*
X720000Y1059396D01*
X720000Y1060604D01*
X720073Y1061811D01*
X720219Y1063011D01*
X720437Y1064200D01*
X720726Y1065373D01*
X721085Y1066527D01*
X721514Y1067657D01*
X722010Y1068759D01*
X722572Y1069830D01*
X723197Y1070864D01*
X723884Y1071859D01*
X724629Y1072810D01*
X725431Y1073715D01*
X726285Y1074569D01*
X727190Y1075371D01*
X728141Y1076116D01*
X729136Y1076803D01*
X730170Y1077428D01*
X731241Y1077990D01*
X732343Y1078486D01*
X733473Y1078915D01*
X734627Y1079274D01*
X735800Y1079563D01*
X736989Y1079781D01*
X738189Y1079927D01*
X739396Y1080000D01*
X740604Y1080000D01*
X741811Y1079927D01*
X743011Y1079781D01*
X744200Y1079563D01*
X745373Y1079274D01*
X746527Y1078915D01*
X747657Y1078486D01*
X748759Y1077990D01*
X749830Y1077428D01*
X750864Y1076803D01*
X751859Y1076116D01*
X752810Y1075371D01*
X753715Y1074569D01*
X754569Y1073715D01*
X755371Y1072810D01*
X756116Y1071859D01*
X756803Y1070864D01*
X757428Y1069830D01*
X757990Y1068759D01*
X758486Y1067657D01*
X758915Y1066527D01*
X759274Y1065373D01*
X759563Y1064200D01*
X759781Y1063011D01*
X759927Y1061811D01*
X760000Y1060604D01*
X760000Y1059396D01*
X690000Y1059396D02*
X689927Y1058189D01*
X689781Y1056989D01*
X689563Y1055800D01*
X689274Y1054627D01*
X688915Y1053473D01*
X688486Y1052343D01*
X687990Y1051241D01*
X687428Y1050170D01*
X686803Y1049136D01*
X686116Y1048141D01*
X685371Y1047190D01*
X684569Y1046285D01*
X683715Y1045431D01*
X682810Y1044629D01*
X681859Y1043884D01*
X680864Y1043197D01*
X679830Y1042572D01*
X678759Y1042010D01*
X677657Y1041514D01*
X676527Y1041085D01*
X675373Y1040726D01*
X674200Y1040437D01*
X673011Y1040219D01*
X671811Y1040073D01*
X670604Y1040000D01*
X669396Y1040000D01*
X668189Y1040073D01*
X666989Y1040219D01*
X665800Y1040437D01*
X664627Y1040726D01*
X663473Y1041085D01*
X662343Y1041514D01*
X661241Y1042010D01*
X660170Y1042572D01*
X659136Y1043197D01*
X658141Y1043884D01*
X657190Y1044629D01*
X656285Y1045431D01*
X655431Y1046285D01*
X654629Y1047190D01*
X653884Y1048141D01*
X653197Y1049136D01*
X652572Y1050170D01*
X652010Y1051241D01*
X651514Y1052343D01*
X651085Y1053473D01*
X650726Y1054627D01*
X650437Y1055800D01*
X650219Y1056989D01*
X650073Y1058189D01*
X650000Y1059396D01*
X650000Y1060604D01*
X650073Y1061811D01*
X650219Y1063011D01*
X650437Y1064200D01*
X650726Y1065373D01*
X651085Y1066527D01*
X651514Y1067657D01*
X652010Y1068759D01*
X652572Y1069830D01*
X653197Y1070864D01*
X653884Y1071859D01*
X654629Y1072810D01*
X655431Y1073715D01*
X656285Y1074569D01*
X657190Y1075371D01*
X658141Y1076116D01*
X659136Y1076803D01*
X660170Y1077428D01*
X661241Y1077990D01*
X662343Y1078486D01*
X663473Y1078915D01*
X664627Y1079274D01*
X665800Y1079563D01*
X666989Y1079781D01*
X668189Y1079927D01*
X669396Y1080000D01*
X670604Y1080000D01*
X671811Y1079927D01*
X673011Y1079781D01*
X674200Y1079563D01*
X675373Y1079274D01*
X676527Y1078915D01*
X677657Y1078486D01*
X678759Y1077990D01*
X679830Y1077428D01*
X680864Y1076803D01*
X681859Y1076116D01*
X682810Y1075371D01*
X683715Y1074569D01*
X684569Y1073715D01*
X685371Y1072810D01*
X686116Y1071859D01*
X686803Y1070864D01*
X687428Y1069830D01*
X687990Y1068759D01*
X688486Y1067657D01*
X688915Y1066527D01*
X689274Y1065373D01*
X689563Y1064200D01*
X689781Y1063011D01*
X689927Y1061811D01*
X690000Y1060604D01*
X690000Y1059396D01*
X350000Y1059396D02*
X349927Y1058189D01*
X349781Y1056989D01*
X349563Y1055800D01*
X349274Y1054627D01*
X348915Y1053473D01*
X348486Y1052343D01*
X347990Y1051241D01*
X347428Y1050170D01*
X346803Y1049136D01*
X346116Y1048141D01*
X345371Y1047190D01*
X344569Y1046285D01*
X343715Y1045431D01*
X342810Y1044629D01*
X341859Y1043884D01*
X340864Y1043197D01*
X339830Y1042572D01*
X338759Y1042010D01*
X337657Y1041514D01*
X336527Y1041085D01*
X335373Y1040726D01*
X334200Y1040437D01*
X333011Y1040219D01*
X331811Y1040073D01*
X330604Y1040000D01*
X329396Y1040000D01*
X328189Y1040073D01*
X326989Y1040219D01*
X325800Y1040437D01*
X324627Y1040726D01*
X323473Y1041085D01*
X322343Y1041514D01*
X321241Y1042010D01*
X320170Y1042572D01*
X319136Y1043197D01*
X318141Y1043884D01*
X317190Y1044629D01*
X316285Y1045431D01*
X315431Y1046285D01*
X314629Y1047190D01*
X313884Y1048141D01*
X313197Y1049136D01*
X312572Y1050170D01*
X312010Y1051241D01*
X311514Y1052343D01*
X311085Y1053473D01*
X310726Y1054627D01*
X310437Y1055800D01*
X310219Y1056989D01*
X310073Y1058189D01*
X310000Y1059396D01*
X310000Y1060604D01*
X310073Y1061811D01*
X310219Y1063011D01*
X310437Y1064200D01*
X310726Y1065373D01*
X311085Y1066527D01*
X311514Y1067657D01*
X312010Y1068759D01*
X312572Y1069830D01*
X313197Y1070864D01*
X313884Y1071859D01*
X314629Y1072810D01*
X315431Y1073715D01*
X316285Y1074569D01*
X317190Y1075371D01*
X318141Y1076116D01*
X319136Y1076803D01*
X320170Y1077428D01*
X321241Y1077990D01*
X322343Y1078486D01*
X323473Y1078915D01*
X324627Y1079274D01*
X325800Y1079563D01*
X326989Y1079781D01*
X328189Y1079927D01*
X329396Y1080000D01*
X330604Y1080000D01*
X331811Y1079927D01*
X333011Y1079781D01*
X334200Y1079563D01*
X335373Y1079274D01*
X336527Y1078915D01*
X337657Y1078486D01*
X338759Y1077990D01*
X339830Y1077428D01*
X340864Y1076803D01*
X341859Y1076116D01*
X342810Y1075371D01*
X343715Y1074569D01*
X344569Y1073715D01*
X345371Y1072810D01*
X346116Y1071859D01*
X346803Y1070864D01*
X347428Y1069830D01*
X347990Y1068759D01*
X348486Y1067657D01*
X348915Y1066527D01*
X349274Y1065373D01*
X349563Y1064200D01*
X349781Y1063011D01*
X349927Y1061811D01*
X350000Y1060604D01*
X350000Y1059396D01*
X280000Y1059396D02*
X279927Y1058189D01*
X279781Y1056989D01*
X279563Y1055800D01*
X279274Y1054627D01*
X278915Y1053473D01*
X278486Y1052343D01*
X277990Y1051241D01*
X277428Y1050170D01*
X276803Y1049136D01*
X276116Y1048141D01*
X275371Y1047190D01*
X274569Y1046285D01*
X273715Y1045431D01*
X272810Y1044629D01*
X271859Y1043884D01*
X270864Y1043197D01*
X269830Y1042572D01*
X268759Y1042010D01*
X267657Y1041514D01*
X266527Y1041085D01*
X265373Y1040726D01*
X264200Y1040437D01*
X263011Y1040219D01*
X261811Y1040073D01*
X260604Y1040000D01*
X259396Y1040000D01*
X258189Y1040073D01*
X256989Y1040219D01*
X255800Y1040437D01*
X254627Y1040726D01*
X253473Y1041085D01*
X252343Y1041514D01*
X251241Y1042010D01*
X250170Y1042572D01*
X249136Y1043197D01*
X248141Y1043884D01*
X247190Y1044629D01*
X246285Y1045431D01*
X245431Y1046285D01*
X244629Y1047190D01*
X243884Y1048141D01*
X243197Y1049136D01*
X242572Y1050170D01*
X242010Y1051241D01*
X241514Y1052343D01*
X241085Y1053473D01*
X240726Y1054627D01*
X240437Y1055800D01*
X240219Y1056989D01*
X240073Y1058189D01*
X240000Y1059396D01*
X240000Y1060604D01*
X240073Y1061811D01*
X240219Y1063011D01*
X240437Y1064200D01*
X240726Y1065373D01*
X241085Y1066527D01*
X241514Y1067657D01*
X242010Y1068759D01*
X242572Y1069830D01*
X243197Y1070864D01*
X243884Y1071859D01*
X244629Y1072810D01*
X245431Y1073715D01*
X246285Y1074569D01*
X247190Y1075371D01*
X248141Y1076116D01*
X249136Y1076803D01*
X250170Y1077428D01*
X251241Y1077990D01*
X252343Y1078486D01*
X253473Y1078915D01*
X254627Y1079274D01*
X255800Y1079563D01*
X256989Y1079781D01*
X258189Y1079927D01*
X259396Y1080000D01*
X260604Y1080000D01*
X261811Y1079927D01*
X263011Y1079781D01*
X264200Y1079563D01*
X265373Y1079274D01*
X266527Y1078915D01*
X267657Y1078486D01*
X268759Y1077990D01*
X269830Y1077428D01*
X270864Y1076803D01*
X271859Y1076116D01*
X272810Y1075371D01*
X273715Y1074569D01*
X274569Y1073715D01*
X275371Y1072810D01*
X276116Y1071859D01*
X276803Y1070864D01*
X277428Y1069830D01*
X277990Y1068759D01*
X278486Y1067657D01*
X278915Y1066527D01*
X279274Y1065373D01*
X279563Y1064200D01*
X279781Y1063011D01*
X279927Y1061811D01*
X280000Y1060604D01*
X280000Y1059396D01*
X237950Y919476D02*
X237882Y918431D01*
X237745Y917392D01*
X237540Y916365D01*
X237269Y915353D01*
X236933Y914361D01*
X236532Y913393D01*
X236068Y912454D01*
X235545Y911546D01*
X234963Y910675D01*
X234325Y909844D01*
X233634Y909057D01*
X232893Y908316D01*
X232106Y907625D01*
X231275Y906988D01*
X230404Y906406D01*
X229496Y905882D01*
X228557Y905418D01*
X227589Y905017D01*
X226597Y904681D01*
X225585Y904410D01*
X224558Y904205D01*
X223519Y904069D01*
X222474Y904000D01*
X221426Y904000D01*
X220381Y904069D01*
X219342Y904205D01*
X218315Y904410D01*
X217303Y904681D01*
X216311Y905017D01*
X215343Y905418D01*
X214404Y905882D01*
X213496Y906406D01*
X212625Y906988D01*
X211794Y907625D01*
X211007Y908316D01*
X210266Y909057D01*
X209575Y909844D01*
X208938Y910675D01*
X208356Y911546D01*
X207832Y912454D01*
X207368Y913393D01*
X206967Y914361D01*
X206631Y915353D01*
X206360Y916365D01*
X206155Y917392D01*
X206019Y918431D01*
X205950Y919476D01*
X205950Y920524D01*
X206019Y921569D01*
X206155Y922608D01*
X206360Y923635D01*
X206631Y924647D01*
X206967Y925639D01*
X207368Y926607D01*
X207832Y927546D01*
X208356Y928454D01*
X208938Y929325D01*
X209575Y930156D01*
X210266Y930943D01*
X211007Y931684D01*
X211794Y932375D01*
X212625Y933013D01*
X213496Y933595D01*
X214404Y934118D01*
X215343Y934582D01*
X216311Y934983D01*
X217303Y935319D01*
X218315Y935590D01*
X219342Y935795D01*
X220381Y935932D01*
X221426Y936000D01*
X222474Y936000D01*
X223519Y935932D01*
X224558Y935795D01*
X225585Y935590D01*
X226597Y935319D01*
X227589Y934983D01*
X228557Y934582D01*
X229496Y934118D01*
X230404Y933595D01*
X231275Y933013D01*
X232106Y932375D01*
X232893Y931684D01*
X233634Y930943D01*
X234325Y930156D01*
X234963Y929325D01*
X235545Y928454D01*
X236068Y927546D01*
X236532Y926607D01*
X236933Y925639D01*
X237269Y924647D01*
X237540Y923635D01*
X237745Y922608D01*
X237882Y921569D01*
X237950Y920524D01*
X237950Y919476D01*
X794050Y919476D02*
X793982Y918431D01*
X793845Y917392D01*
X793640Y916365D01*
X793369Y915353D01*
X793033Y914361D01*
X792632Y913393D01*
X792168Y912454D01*
X791645Y911546D01*
X791063Y910675D01*
X790425Y909844D01*
X789734Y909057D01*
X788993Y908316D01*
X788206Y907625D01*
X787375Y906988D01*
X786504Y906406D01*
X785596Y905882D01*
X784657Y905418D01*
X783689Y905017D01*
X782697Y904681D01*
X781685Y904410D01*
X780658Y904205D01*
X779619Y904069D01*
X778574Y904000D01*
X777526Y904000D01*
X776481Y904069D01*
X775442Y904205D01*
X774415Y904410D01*
X773403Y904681D01*
X772411Y905017D01*
X771443Y905418D01*
X770504Y905882D01*
X769596Y906406D01*
X768725Y906988D01*
X767894Y907625D01*
X767107Y908316D01*
X766366Y909057D01*
X765675Y909844D01*
X765038Y910675D01*
X764456Y911546D01*
X763932Y912454D01*
X763468Y913393D01*
X763067Y914361D01*
X762731Y915353D01*
X762460Y916365D01*
X762255Y917392D01*
X762119Y918431D01*
X762050Y919476D01*
X762050Y920524D01*
X762119Y921569D01*
X762255Y922608D01*
X762460Y923635D01*
X762731Y924647D01*
X763067Y925639D01*
X763468Y926607D01*
X763932Y927546D01*
X764456Y928454D01*
X765038Y929325D01*
X765675Y930156D01*
X766366Y930943D01*
X767107Y931684D01*
X767894Y932375D01*
X768725Y933013D01*
X769596Y933595D01*
X770504Y934118D01*
X771443Y934582D01*
X772411Y934983D01*
X773403Y935319D01*
X774415Y935590D01*
X775442Y935795D01*
X776481Y935932D01*
X777526Y936000D01*
X778574Y936000D01*
X779619Y935932D01*
X780658Y935795D01*
X781685Y935590D01*
X782697Y935319D01*
X783689Y934983D01*
X784657Y934582D01*
X785596Y934118D01*
X786504Y933595D01*
X787375Y933013D01*
X788206Y932375D01*
X788993Y931684D01*
X789734Y930943D01*
X790425Y930156D01*
X791063Y929325D01*
X791645Y928454D01*
X792168Y927546D01*
X792632Y926607D01*
X793033Y925639D01*
X793369Y924647D01*
X793640Y923635D01*
X793845Y922608D01*
X793982Y921569D01*
X794050Y920524D01*
X794050Y919476D01*
M02*
