G04 EAGLE Gerber RS-274X export*
G75*
%MOMM*%
%FSLAX34Y34*%
%LPD*%
%AMOC8*
5,1,8,0,0,1.08239X$1,22.5*%
G01*
%ADD10C,4.203200*%
%ADD11C,3.403200*%
%ADD12R,4.419200X4.419200*%
%ADD13C,4.419200*%
%ADD14R,1.852800X1.852800*%
%ADD15C,1.852800*%
%ADD16R,1.612800X1.612800*%
%ADD17P,1.745679X8X22.500000*%
%ADD18C,2.082800*%
%ADD19C,2.489200*%
%ADD20C,1.981200*%
%ADD21C,10.203200*%
%ADD22P,2.168244X8X22.500000*%
%ADD23C,3.569200*%
%ADD24C,5.219200*%


D10*
X740000Y1060000D03*
X670000Y1060000D03*
X330000Y1060000D03*
X260000Y1060000D03*
D11*
X221950Y920000D03*
X778050Y920000D03*
D12*
X135500Y920000D03*
D13*
X843420Y920000D02*
X885580Y920000D01*
D14*
X425000Y744900D03*
D15*
X425000Y719500D03*
X425000Y694100D03*
X425000Y668700D03*
X425000Y643300D03*
X425000Y617900D03*
X425000Y592500D03*
D14*
X425000Y567100D03*
X575000Y567100D03*
D15*
X575000Y592500D03*
X575000Y617900D03*
X575000Y643300D03*
X575000Y668700D03*
X575000Y694100D03*
X575000Y719500D03*
X575000Y744900D03*
D16*
X284800Y1125700D03*
D17*
X310200Y1125700D03*
X335600Y1125700D03*
X361000Y1125700D03*
X386400Y1125700D03*
X411800Y1125700D03*
X437200Y1125700D03*
X462600Y1125700D03*
X488000Y1125700D03*
X513400Y1125700D03*
X538800Y1125700D03*
X564200Y1125700D03*
X589600Y1125700D03*
X615000Y1125700D03*
X640400Y1125700D03*
X665800Y1125700D03*
X691200Y1125700D03*
X716600Y1125700D03*
X716600Y1354300D03*
X691200Y1354300D03*
X665800Y1354300D03*
X640400Y1354300D03*
X615000Y1354300D03*
X589600Y1354300D03*
X564200Y1354300D03*
X538800Y1354300D03*
X513400Y1354300D03*
X488000Y1354300D03*
X462600Y1354300D03*
X437200Y1354300D03*
X411800Y1354300D03*
X386400Y1354300D03*
X361000Y1354300D03*
X335600Y1354300D03*
X310200Y1354300D03*
D16*
X284800Y1354300D03*
D18*
X284800Y1380000D03*
X310200Y1380000D03*
X335600Y1380000D03*
X361000Y1380000D03*
X386400Y1380000D03*
X411800Y1380000D03*
X437200Y1380000D03*
X462600Y1380000D03*
X488000Y1380000D03*
X513400Y1380000D03*
X538800Y1380000D03*
X564200Y1380000D03*
X589600Y1380000D03*
X615000Y1380000D03*
X640400Y1380000D03*
X665800Y1380000D03*
X691200Y1380000D03*
X716600Y1380000D03*
X716600Y1100000D03*
X691200Y1100000D03*
X665800Y1100000D03*
X640400Y1100000D03*
X615000Y1100000D03*
X589600Y1100000D03*
X564200Y1100000D03*
X538800Y1100000D03*
X513400Y1100000D03*
X488000Y1100000D03*
X462600Y1100000D03*
X437200Y1100000D03*
X411800Y1100000D03*
X386400Y1100000D03*
X361000Y1100000D03*
X335600Y1100000D03*
X310200Y1100000D03*
X284800Y1100000D03*
X235200Y1143160D03*
X235200Y1117760D03*
X765200Y1117190D03*
X765200Y1142590D03*
X450000Y785000D03*
X424600Y785000D03*
D19*
X423800Y406675D03*
X576200Y406675D03*
X576200Y273325D03*
X423800Y273325D03*
D20*
X525400Y238400D03*
X500000Y238400D03*
X474600Y238400D03*
X398400Y340000D03*
X398400Y314600D03*
X398400Y365400D03*
X531750Y416200D03*
X468250Y416200D03*
X468250Y467000D03*
X531750Y467000D03*
D18*
X946000Y796000D03*
X946000Y821400D03*
X946000Y846800D03*
X764700Y1176500D03*
X790100Y1176500D03*
X815500Y1176500D03*
X840900Y1176500D03*
X866300Y1176500D03*
X891700Y1176500D03*
X764700Y1201900D03*
X790100Y1201900D03*
X815500Y1201900D03*
X840900Y1201900D03*
X866300Y1201900D03*
X891700Y1201900D03*
X764700Y1227300D03*
X790100Y1227300D03*
X815500Y1227300D03*
X840900Y1227300D03*
X866300Y1227300D03*
X891700Y1227300D03*
X764700Y1252700D03*
X790100Y1252700D03*
X815500Y1252700D03*
X840900Y1252700D03*
X866300Y1252700D03*
X891700Y1252700D03*
X764700Y1278100D03*
X790100Y1278100D03*
X815500Y1278100D03*
X840900Y1278100D03*
X866300Y1278100D03*
X891700Y1278100D03*
X764700Y1303500D03*
X790100Y1303500D03*
X815500Y1303500D03*
X840900Y1303500D03*
X866300Y1303500D03*
X891700Y1303500D03*
X108800Y1176500D03*
X134200Y1176500D03*
X159600Y1176500D03*
X185000Y1176500D03*
X210400Y1176500D03*
X235800Y1176500D03*
X108800Y1201900D03*
X134200Y1201900D03*
X159600Y1201900D03*
X185000Y1201900D03*
X210400Y1201900D03*
X235800Y1201900D03*
X108800Y1227300D03*
X134200Y1227300D03*
X159600Y1227300D03*
X185000Y1227300D03*
X210400Y1227300D03*
X235800Y1227300D03*
X108800Y1252700D03*
X134200Y1252700D03*
X159600Y1252700D03*
X185000Y1252700D03*
X210400Y1252700D03*
X235800Y1252700D03*
X108800Y1278100D03*
X134200Y1278100D03*
X159600Y1278100D03*
X185000Y1278100D03*
X210400Y1278100D03*
X235800Y1278100D03*
X108800Y1303500D03*
X134200Y1303500D03*
X159600Y1303500D03*
X185000Y1303500D03*
X210400Y1303500D03*
X235800Y1303500D03*
D21*
X50000Y1350000D03*
X950000Y1350000D03*
D22*
X575000Y785000D03*
D23*
X567310Y67310D03*
X432690Y67310D03*
D24*
X500000Y55000D03*
M02*
